<?xml version="1.0" encoding="UTF-8"?><svg id="Layer_1" xmlns="http://www.w3.org/2000/svg" viewBox="0 0 190.32 64"><defs><style>.cls-1{fill:#e80c31;}.cls-2{fill:#fff;}.cls-3{fill:#c4052e;}</style></defs><path class="cls-2" d="m66.75,48.78c-.18-.15-.3-.33-.37-.55l-5.19-16.46-.05-.23c0-.14.06-.26.17-.37.11-.11.24-.17.4-.17h3.37c.26,0,.47.07.63.22.16.15.27.3.32.48l3.5,11.62,3.52-11.62c.05-.19.16-.35.32-.49.16-.14.37-.21.63-.21h3.37c.15,0,.28.06.39.17.1.11.15.24.15.37,0,.09,0,.16-.03.23l-5.22,16.46c-.05.22-.17.41-.35.55-.18.15-.42.22-.71.22h-4.14c-.29,0-.53-.07-.71-.22Zm10.94.05c-.11-.11-.17-.24-.17-.37,0-.1,0-.18.03-.23l5.99-16.48c.17-.5.51-.75,1.03-.75h4.01c.51,0,.86.25,1.03.75l5.99,16.48c.02.05.03.13.03.23,0,.14-.06.26-.17.37-.11.11-.24.17-.37.17h-3.44c-.4,0-.69-.18-.86-.55l-.91-2.45h-6.6l-.91,2.45c-.17.37-.45.55-.86.55h-3.44c-.14,0-.26-.06-.37-.17Zm6.56-6.83h4.65l-2.33-6.66-2.33,6.66Zm13.94,6.82c-.13-.12-.2-.27-.2-.43v-16.72c0-.19.06-.35.18-.48s.27-.19.46-.19h7.07c2.26,0,4.03.51,5.31,1.54,1.28,1.03,1.92,2.48,1.92,4.35,0,1.2-.28,2.22-.84,3.06-.56.84-1.32,1.49-2.3,1.95l3.47,6.27c.05.1.08.2.08.28,0,.14-.05.26-.15.37s-.23.17-.39.17h-3.24c-.51,0-.88-.22-1.09-.66l-2.93-5.34h-2.55v5.39c0,.18-.07.33-.2.44-.13.12-.3.17-.49.17h-3.64c-.18,0-.33-.06-.47-.18Zm7.49-9.82c.7,0,1.22-.17,1.59-.52.36-.35.55-.83.55-1.44s-.18-1.11-.55-1.48c-.36-.37-.89-.56-1.59-.56h-2.69v4h2.69Zm11.89,9.08c-1.42-1.2-2.17-2.95-2.25-5.26-.02-.47-.03-1.23-.03-2.29s0-1.86.03-2.34c.09-2.26.85-4,2.28-5.22s3.37-1.84,5.82-1.84c1.55,0,2.93.25,4.15.75,1.22.5,2.19,1.23,2.9,2.19s1.08,2.08,1.12,3.39c0,.16-.06.29-.17.39-.11.1-.25.16-.4.16h-3.7c-.24,0-.42-.05-.53-.14-.11-.1-.21-.27-.3-.53-.24-.85-.61-1.44-1.11-1.78-.5-.34-1.15-.51-1.97-.51-1.96,0-2.98,1.09-3.05,3.28-.02.47-.03,1.19-.03,2.16s0,1.71.03,2.21c.07,2.19,1.08,3.28,3.05,3.28.8,0,1.45-.17,1.97-.52.51-.35.88-.94,1.11-1.77.07-.26.17-.44.29-.53s.3-.14.55-.14h3.7c.16,0,.29.05.4.16.11.1.17.23.17.39-.03,1.3-.41,2.43-1.12,3.39-.71.96-1.68,1.68-2.9,2.19-1.22.5-2.61.76-4.15.76-2.48,0-4.43-.6-5.85-1.8Zm15.23.75c-.11-.11-.17-.24-.17-.37,0-.1,0-.18.03-.23l5.99-16.48c.17-.5.51-.75,1.03-.75h4.01c.51,0,.86.25,1.03.75l5.99,16.48c.02.05.03.13.03.23,0,.14-.06.26-.17.37-.11.11-.24.17-.37.17h-3.44c-.4,0-.69-.18-.86-.55l-.91-2.45h-6.6l-.91,2.45c-.17.37-.45.55-.86.55h-3.44c-.14,0-.26-.06-.37-.17Zm6.56-6.83h4.65l-2.33-6.66-2.33,6.66Zm13.83,6.82c-.13-.12-.19-.27-.19-.46v-16.69c0-.19.07-.35.19-.48.13-.13.29-.19.48-.19h2.93c.43,0,.74.19.93.57l4.45,7.92,4.48-7.92c.19-.38.5-.57.93-.57h2.93c.19,0,.35.06.48.19s.19.29.19.48v16.69c0,.19-.06.34-.19.46-.13.12-.29.18-.48.18h-3.66c-.18,0-.33-.06-.46-.18s-.2-.26-.2-.42v-8.67l-2.87,4.71c-.23.37-.54.55-.93.55h-1.43c-.35,0-.66-.18-.93-.55l-2.84-4.71v8.67c0,.17-.07.32-.2.43-.13.11-.3.17-.49.17h-2.64c-.19,0-.35-.06-.48-.18Zm22,0c-.13-.12-.19-.27-.19-.44v-16.7c0-.19.06-.35.18-.48.12-.13.28-.2.47-.2h7.4c2.27,0,4.04.51,5.33,1.54,1.29,1.03,1.93,2.54,1.93,4.52s-.65,3.47-1.93,4.46c-1.29.98-3.07,1.48-5.33,1.48h-3.05v5.38c0,.17-.06.31-.18.44-.12.12-.27.19-.46.19h-3.71c-.17,0-.32-.06-.45-.19Zm7.31-9.81c.49,0,1.28-.03,1.69-.41s.61-.93.61-1.66c0-.68-.2-1.22-.56-1.65-.24-.29-1.24-.29-1.74-.29h-2.51v4h2.51Z"/><g><polygon class="cls-3" points="0 52 0 36 2 36 2 30 4 30 4 38 6 38 6 40 8 40 8 42 10 42 10 38 12 38 12 30 10 30 10 22 12 22 12 18 14 18 14 22 16 22 16 24 18 24 18 26 20 26 20 24 22 24 22 22 26 22 26 14 24 14 24 10 22 10 22 8 20 8 20 4 22 4 22 0 24 0 24 6 26 6 26 8 30 8 30 10 34 10 34 12 36 12 36 14 38 14 38 20 36 20 36 22 34 22 34 24 32 24 32 30 34 30 34 32 36 32 36 34 40 34 40 32 42 32 42 30 44 30 44 28 46 28 46 22 44 22 44 18 46 18 46 20 48 20 48 22 52 22 52 34 50 34 50 38 48 38 48 44 52 44 52 42 54 42 54 38 56 38 56 52 52 52 52 54 50 54 50 56 48 56 48 58 46 58 46 60 42 60 42 62 38 62 38 64 16 64 16 62 12 62 12 60 8 60 8 58 6 58 6 56 4 56 4 54 2 54 2 52 0 52"/><polyline class="cls-1" points="50 24 50 32 48 32 48 36 46 36 46 44 48 44 48 46 52 46 52 44 54 44 54 50 50 50 50 52 48 52 48 54 46 54 46 56 44 56 44 58 40 58 40 60 36 60 36 62 18 62 18 60 14 60 14 58 10 58 10 56 8 56 8 54 6 54 6 52 4 52 4 50 2 50 2 40 4 40 4 42 6 42 6 44 12 44 12 42 14 42 14 28 12 28 12 24 14 24 14 26 16 26 16 28 22 28 22 26 24 26 24 24 28 24 28 12 32 12 32 14 34 14 34 16 36 16 36 18 34 18 34 20 32 20 32 22 30 22 30 32 32 32 32 34 36 34 36 36 42 36 42 34 44 34 44 32 46 32 46 28 48 28 48 24"/><polygon class="cls-2" points="20 42 26 42 26 54 30 54 30 42 36 42 36 52 34 52 34 54 32 54 32 56 30 56 30 58 26 58 26 56 24 56 24 54 22 54 22 52 20 52 20 42"/></g></svg>